name symmetric_stride_kinematics_HTD_Minus_4.mot
datacolumns 38
datarows 13
range 1.45656000 1.46821248
endheader
                time	/jointset/ground_pelvis/pelvis_tilt/value	/jointset/ground_pelvis/pelvis_list/value	/jointset/ground_pelvis/pelvis_rotation/value	/jointset/ground_pelvis/pelvis_tx/value	/jointset/ground_pelvis/pelvis_ty/value	/jointset/ground_pelvis/pelvis_tz/value	/jointset/hip_r/hip_flexion_r/value	/jointset/hip_r/hip_adduction_r/value	/jointset/hip_r/hip_rotation_r/value	/jointset/knee_r/knee_angle_r/value	/jointset/ankle_r/ankle_angle_r/value	/jointset/subtalar_r/subtalar_angle_r/value	/jointset/mtp_r/mtp_angle_r/value	/jointset/hip_l/hip_flexion_l/value	/jointset/hip_l/hip_adduction_l/value	/jointset/hip_l/hip_rotation_l/value	/jointset/knee_l/knee_angle_l/value	/jointset/ankle_l/ankle_angle_l/value	/jointset/subtalar_l/subtalar_angle_l/value	/jointset/mtp_l/mtp_angle_l/value	/jointset/back/lumbar_extension/value	/jointset/back/lumbar_bending/value	/jointset/back/lumbar_rotation/value	/jointset/acromial_r/arm_flex_r/value	/jointset/acromial_r/arm_add_r/value	/jointset/acromial_r/arm_rot_r/value	/jointset/elbow_r/elbow_flex_r/value	/jointset/radioulnar_r/pro_sup_r/value	/jointset/radius_hand_r/wrist_flex_r/value	/jointset/radius_hand_r/wrist_dev_r/value	/jointset/acromial_l/arm_flex_l/value	/jointset/acromial_l/arm_add_l/value	/jointset/acromial_l/arm_rot_l/value	/jointset/elbow_l/elbow_flex_l/value	/jointset/radioulnar_l/pro_sup_l/value	/jointset/radius_hand_l/wrist_flex_l/value	/jointset/radius_hand_l/wrist_dev_l/value	
          1.45656000	         -9.77342760	         -5.56660897	          9.54129745	         16.46869408	          0.96863553	          0.30825276	         79.44932302	         -9.89018012	          4.27117640	        -95.51605133	         13.40166404	        -25.78882465	         -1.02716713	          6.05105834	        -10.98513243	          7.51732143	        -62.92623424	        -28.72215722	        -15.57510556	         -9.81365747	        -14.01157692	          6.94730108	         -6.89561040	        -74.88721542	          0.04336073	         -0.00301595	         93.92308883	         66.90327280	        -14.18424020	          6.66965832	         79.89854853	        -17.83206329	         -0.00177088	        156.37565945	         57.50975039	         -8.30989398	          7.84287916	
          1.45716224	         -9.79764348	         -5.54528934	          9.45128452	         16.47531817	          0.96891167	          0.30836360	         79.41491829	         -9.89144248	          4.21528870	        -94.81210978	         13.32900592	        -25.70133582	         -0.79110807	          6.06434426	        -10.97594209	          7.47802376	        -63.28073538	        -28.81134220	        -15.43412435	         -9.74489635	        -14.04477778	          6.97257376	         -6.85301056	        -74.83974804	         -0.03967348	         -0.00207034	         93.49519746	         66.96332131	        -14.28999836	          6.67968763	         79.58472090	        -17.83500275	         -0.00302761	        156.24450695	         57.44542288	         -8.21598718	          7.82433504	
          1.45906509	         -9.86176202	         -5.47706598	          9.16764627	         16.49622307	          0.96983008	          0.30872170	         79.24824308	         -9.89394712	          4.02304349	        -92.55172478	         13.07779210	        -25.41994271	         -0.04199314	          6.10743615	        -10.94284022	          7.35735760	        -64.39449575	        -29.06234930	        -14.96748860	         -9.53343039	        -14.17043386	          7.05478790	         -6.71867066	        -74.63944504	         -0.32988762	         -0.00001012	         92.14811738	         67.16359317	        -14.62416552	          6.70576361	         78.51141228	        -17.88174856	         -0.00440288	        155.73403292	         57.23552749	         -7.91926267	          7.76568239	
          1.46044416	         -9.89443834	         -5.42695294	          8.96429077	         16.51135258	          0.97054022	          0.30898968	         79.07077880	         -9.89483818	          3.86860320	        -90.88166866	         12.87044570	        -25.22527702	          0.49433411	          6.13783427	        -10.91561032	          7.27264178	        -65.19668257	        -29.19995836	        -14.63623389	         -9.38914129	        -14.28280926	          7.11707393	         -6.62329865	        -74.44952702	         -0.56581177	         -0.00381312	         91.18371001	         67.31871265	        -14.86633603	          6.71948665	         77.65750057	        -17.95119257	         -0.00234597	        155.26780526	         57.07556929	         -7.70423032	          7.72322844	
          1.46044416	         -9.89443834	         -5.42695294	          8.96429077	         16.51135258	          0.97054022	          0.30898968	         79.07077880	         -9.89483818	          3.86860320	        -90.88166866	         12.87044570	        -25.22527702	          0.49433411	          6.13783427	        -10.91561032	          7.27264178	        -65.19668257	        -29.19995836	        -14.63623389	         -9.38914129	        -14.28280926	          7.11707393	         -6.62329865	        -74.44952702	         -0.56581177	         -0.00381312	         91.18371001	         67.31871265	        -14.86633603	          6.71948665	         77.65750057	        -17.95119257	         -0.00234597	        155.26780526	         57.07556929	         -7.70423032	          7.72322844	
          1.46104640	         -9.90453154	         -5.40491490	          8.87645376	         16.51795463	          0.97086234	          0.30910917	         78.97793006	         -9.89511061	          3.79713915	        -90.14467338	         12.77203572	        -25.14631313	          0.72448167	          6.15038848	        -10.90300754	          7.23624924	        -65.54591080	        -29.24505234	        -14.49987362	         -9.32931236	        -14.33793043	          7.14508178	         -6.58262370	        -74.35558919	         -0.67535052	         -0.00804685	         90.76757300	         67.38908627	        -14.97209451	          6.72419095	         77.26507365	        -17.99089473	         -0.00003429	        155.03769037	         57.00342483	         -7.61033482	          7.70476842	
          1.46294925	         -9.91563611	         -5.33511462	          8.60458800	         16.53879747	          0.97193150	          0.30949734	         78.61950632	         -9.89567279	          3.55459341	        -87.78893912	         12.42355335	        -24.93885496	          1.42714611	          6.18304508	        -10.86180343	          7.12323903	        -66.64545714	        -29.31990657	        -14.12933288	         -9.15410527	        -14.54006211	          7.23811181	         -6.46006481	        -74.01812409	         -1.04652965	         -0.03681518	         89.48094977	         67.62248344	        -15.30626273	          6.73425583	         75.94800794	        -18.15379601	         -0.00246638	        154.19828974	         56.76419979	         -7.31357799	          7.64585957	
          1.46432832	         -9.90119665	         -5.28389304	          8.41450129	         16.55388997	          0.97275708	          0.30978962	         78.29626422	         -9.89643313	          3.36354749	        -86.06004734	         12.13214265	        -24.84024374	          1.90974692	          6.19748696	        -10.83055785	          7.04373258	        -67.43866762	        -29.31661992	        -13.93024243	         -9.04103807	        -14.71555306	          7.30969198	         -6.37880712	        -73.73798684	         -1.33826529	         -0.07718501	         88.58217897	         67.80232018	        -15.54843262	          6.73746018	         74.92349258	        -18.30742294	         -0.01193773	        153.48159430	         56.58084585	         -7.09861173	          7.60395141	
          1.46432832	         -9.90119665	         -5.28389304	          8.41450129	         16.55388997	          0.97275708	          0.30978962	         78.29626422	         -9.89643313	          3.36354749	        -86.06004734	         12.13214265	        -24.84024374	          1.90974692	          6.19748696	        -10.83055785	          7.04373258	        -67.43866762	        -29.31661992	        -13.93024243	         -9.04103807	        -14.71555306	          7.30969198	         -6.37880712	        -73.73798684	         -1.33826529	         -0.07718501	         88.58217897	         67.80232018	        -15.54843262	          6.73746018	         74.92349258	        -18.30742294	         -0.01193773	        153.48159430	         56.58084585	         -7.09861173	          7.60395141	
          1.46493056	         -9.88830897	         -5.26123193	          8.33372969	         16.56047812	          0.97313140	          0.30992036	         78.13801185	         -9.89703225	          3.27628689	        -85.30046553	         11.99398425	        -24.81347667	          2.11301491	          6.20077020	        -10.81651112	          7.00983631	        -67.78409621	        -29.30182938	        -13.86391436	         -8.99557721	        -14.80039998	          7.34200763	         -6.34582925	        -73.60702087	         -1.47138348	         -0.10120667	         88.20017580	         67.88370612	        -15.65419231	          6.73793203	         74.45844714	        -18.38378943	         -0.01820286	        153.13976673	         56.49809198	         -7.00474432	          7.58586830	
          1.46683341	         -9.81925921	         -5.18758161	          8.08925367	         16.58128573	          0.97437005	          0.31034718	         77.56919456	         -9.90115846	          2.98655030	        -82.88707853	         11.51232381	        -24.80328973	          2.72497834	          6.19757544	        -10.76966648	          6.90753647	        -68.87148082	        -29.21813685	        -13.73973320	         -8.86916459	        -15.10286523	          7.44735559	         -6.25361188	        -73.16228725	         -1.91337026	         -0.20824948	         87.04320092	         68.15211004	        -15.98835678	          6.73633908	         72.92499658	        -18.66301626	         -0.02278411	        151.94574754	         56.22151153	         -6.70800295	          7.52774804	
          1.46821248	         -9.74157338	         -5.13238164	          7.92442137	         16.59636035	          0.97532018	          0.31067129	         77.09230640	         -9.90765014	          2.76384434	        -81.12993416	         11.12311810	        -24.86506923	          3.14662012	          6.18279583	        -10.73332286	          6.84115133	        -69.65613970	        -29.13276003	        -13.71525129	         -8.79604946	        -15.35478698	          7.52744232	         -6.20104810	        -72.81346827	         -2.25298099	         -0.32094402	         86.25790491	         68.35723203	        -16.23053516	          6.73290866	         71.75607179	        -18.90075358	         -0.01730429	        150.97904408	         56.00511214	         -6.49307069	          7.48522593	
          1.46821248	         -9.74157338	         -5.13238164	          7.92442137	         16.59636035	          0.97532018	          0.31067129	         77.09230640	         -9.90765014	          2.76384434	        -81.12993416	         11.12311810	        -24.86506923	          3.14662012	          6.18279583	        -10.73332286	          6.84115133	        -69.65613970	        -29.13276003	        -13.71525129	         -8.79604946	        -15.35478698	          7.52744232	         -6.20104810	        -72.81346827	         -2.25298099	         -0.32094402	         86.25790491	         68.35723203	        -16.23053516	          6.73290866	         71.75607179	        -18.90075358	         -0.01730429	        150.97904408	         56.00511214	         -6.49307069	          7.48522593	
